# xmcd
#
# Track frame offsets:
#	187
#	25730
#	48020
#	65997
#	85935
#	112312
#	133435
#	161180
#	191262
#	215945
#
# Disc length: 3241 seconds
#
# Revision: 1
# Processed by: cddbd v1.4PL0 Copyright (c) Steve Scherf et al.
# Submitted via: EasyCDDAExtractor 5.0.7
#
DISCID=9c0ca70a
DTITLE=Various Artist - Ao Lua Ha Dong
DYEAR=1900
DGENRE=Vietnamese
TTITLE0=Vu Khanh - Ao Lua Ha Dong
TTITLE1=Tuan Ngoc - Khuc Thuy Du
TTITLE2=Si Phu - Sao Ma Quen Duoc
TTITLE3=Vu Khanh - Nhu Giot Sau Roi
TTITLE4=Si Phu - Chiec La Cuoi Cung
TTITLE5=Si Phu - Chuyen Tinh Buon
TTITLE6=Tuan Ngoc - Mat Le Cho Nang
TTITLE7=Si Phu - Dua Em Tim Dong Hoa Vang
TTITLE8=Vu Khanh - Ben Cau Bien Gioi
TTITLE9=Tuan Ngoc - Kiep Nao Co Yeu Nhau
EXTD=
EXTT0=
EXTT1=
EXTT2=
EXTT3=
EXTT4=
EXTT5=
EXTT6=
EXTT7=
EXTT8=
EXTT9=
PLAYORDER=
